<?xml version="1.0" standalone="no"?>
<!DOCTYPE svg PUBLIC "-//W3C//DTD SVG 20010904//EN"
 "http://www.w3.org/TR/2001/REC-SVG-20010904/DTD/svg10.dtd">
<svg version="1.0" xmlns="http://www.w3.org/2000/svg"
 width="300.000000pt" height="300.000000pt" viewBox="0 0 300.000000 300.000000"
 preserveAspectRatio="xMidYMid meet">
<metadata>
Created by potrace 1.10, written by Peter Selinger 2001-2011
</metadata>
<g transform="translate(0.000000,300.000000) scale(0.100000,-0.100000)"
fill="#000000" stroke="none">
<path d="M1429 2967 c-51 -27 -104 -91 -119 -145 -5 -20 -10 -124 -10 -229 l0
-193 -133 0 c-107 0 -144 4 -190 20 -229 80 -506 -16 -638 -221 -65 -102 -82
-167 -87 -341 l-4 -158 -124 0 c-104 0 -124 -2 -124 -15 0 -12 20 -15 118 -15
162 0 155 -7 163 172 4 78 10 158 14 177 27 132 147 282 273 342 144 68 263
75 420 23 51 -17 281 -21 310 -5 11 6 23 18 26 28 4 10 7 93 7 186 -1 93 4
187 10 212 14 57 67 116 139 155 52 28 53 30 24 30 -17 0 -51 -10 -75 -23z"/>
<path d="M2198 2970 c18 -11 35 -20 39 -20 19 0 94 -76 112 -115 19 -41 21
-62 21 -240 l0 -195 26 -17 c23 -15 59 -17 298 -18 149 0 279 1 289 3 9 3 17
11 17 18 0 12 -51 14 -300 14 l-300 0 0 193 c0 214 -8 256 -60 319 -34 41
-103 78 -146 78 l-29 0 33 -20z"/>
<path d="M1530 2922 c-85 -10 -149 -79 -151 -162 0 -25 0 -121 1 -215 0 -93
-2 -203 -6 -242 -5 -63 -9 -73 -25 -73 -13 0 -19 7 -19 24 0 50 -38 72 -118
67 -44 -2 -10 -21 39 -21 l49 0 0 -50 0 -50 50 0 50 0 0 291 c0 326 2 340 69
385 l36 24 338 0 c373 0 385 -2 428 -61 24 -34 24 -35 27 -336 l3 -303 49 0
50 0 0 50 0 50 125 0 125 0 0 -942 c0 -878 -1 -945 -18 -977 -9 -19 -30 -44
-45 -55 -27 -20 -42 -21 -408 -24 l-379 -3 0 701 0 700 -225 0 -225 0 0 123
c0 197 -39 324 -129 427 -50 58 -62 47 -16 -16 50 -71 93 -155 106 -211 6 -26
12 -107 13 -180 2 -83 7 -138 15 -147 18 -21 59 -26 243 -27 114 0 170 -4 176
-12 5 -7 10 -215 12 -482 4 -872 4 -863 23 -883 16 -15 49 -17 350 -20 360 -4
416 2 467 45 68 56 64 -11 63 1031 0 851 -2 945 -16 959 -12 12 -41 17 -119
19 -120 4 -148 -6 -164 -56 -12 -35 -28 -48 -38 -31 -4 5 -9 130 -11 278 -3
147 -10 282 -16 300 -13 42 -69 90 -113 99 -35 6 -617 12 -666 6z"/>
<path d="M1583 2779 c-30 -15 -48 -33 -62 -63 -19 -39 -21 -61 -21 -279 l0
-237 50 0 50 0 0 53 0 52 250 -3 250 -3 0 -49 0 -50 50 0 50 0 0 241 c0 230
-1 243 -22 280 -14 25 -37 46 -63 59 -38 18 -62 20 -266 20 -207 0 -227 -2
-266 -21z m532 -29 c17 -11 37 -31 43 -45 13 -27 18 -447 7 -466 -11 -17 -27
-5 -39 31 -18 56 -36 60 -277 59 -243 0 -259 -4 -272 -62 -10 -43 -42 -52 -50
-14 -2 12 -3 112 -2 223 4 304 -8 293 324 294 216 0 236 -2 266 -20z"/>
<path d="M1599 2701 c-29 -29 -29 -30 -29 -154 0 -69 3 -133 6 -142 14 -35 52
-41 283 -40 288 2 271 -9 271 175 l0 132 -29 29 -29 29 -222 0 -222 0 -29 -29z
m485 -17 c13 -12 16 -41 16 -150 l0 -134 -250 0 -250 0 0 134 c0 109 3 138 16
150 13 14 49 16 234 16 185 0 221 -2 234 -16z"/>
<path d="M731 2368 c-140 -16 -292 -123 -353 -250 -48 -97 -54 -151 -51 -408
1 -130 0 -246 -4 -258 -6 -26 -42 -30 -45 -4 0 9 -2 45 -3 80 -3 84 -15 96
-100 96 -46 0 -70 -5 -81 -16 -14 -14 -16 -95 -16 -711 1 -751 -1 -723 54
-774 12 -12 37 -27 53 -33 41 -16 1188 -16 1231 0 36 14 71 46 90 83 23 42 22
1413 0 1435 -19 19 -145 17 -164 -2 -8 -7 -14 -41 -15 -82 -3 -73 -10 -94 -32
-94 -21 0 -24 37 -24 295 1 264 -5 308 -54 400 -90 171 -280 266 -486 243z
m198 -37 c85 -26 140 -61 200 -127 111 -121 121 -165 121 -521 l0 -283 50 0
50 0 0 100 0 100 75 0 75 0 0 -691 c0 -764 2 -735 -64 -782 l-31 -22 -605 0
-605 0 -31 22 c-66 47 -64 18 -64 782 l0 691 75 0 75 0 0 -100 0 -100 50 0 50
0 0 284 c0 310 6 351 63 449 29 49 122 139 171 164 103 54 238 67 345 34z"/>
<path d="M708 2237 c-115 -33 -223 -145 -247 -258 -6 -28 -11 -164 -11 -314
l0 -265 50 0 50 0 0 100 0 100 250 0 250 0 0 -100 0 -100 51 0 50 0 -3 293 -3
292 -29 59 c-76 154 -251 237 -408 193z m156 -22 c124 -21 230 -131 254 -262
10 -55 15 -450 6 -495 -7 -35 -39 -38 -48 -5 -3 12 -6 50 -6 83 0 43 -5 65
-15 74 -12 10 -74 13 -257 12 -202 -1 -244 -4 -257 -17 -11 -10 -16 -37 -17
-83 -2 -93 -2 -92 -23 -92 -28 0 -31 26 -27 285 3 260 10 296 74 380 20 27 59
63 86 79 46 29 145 57 176 51 8 -2 33 -6 54 -10z"/>
<path d="M704 2162 c-131 -46 -184 -144 -184 -344 0 -150 -2 -148 178 -148
103 0 143 4 158 14 18 13 19 30 22 228 3 205 2 215 -18 241 -26 33 -78 36
-156 9z m146 -237 l0 -225 -151 0 -151 0 4 138 c3 129 5 140 31 184 47 80 127
126 225 127 l42 1 0 -225z"/>
<path d="M980 2073 c59 -67 70 -104 70 -245 l0 -128 -50 0 -50 0 0 195 c0 123
-4 195 -10 195 -6 0 -10 -71 -10 -194 0 -217 0 -217 69 -218 68 -1 71 7 71
158 0 150 -15 201 -72 249 -44 37 -55 30 -18 -12z"/>
<path d="M717 1140 c-99 -25 -191 -103 -235 -198 -22 -48 -27 -71 -27 -142 0
-104 29 -174 100 -245 67 -68 141 -99 237 -99 92 -1 119 15 102 61 -9 26 -14
28 -84 34 -41 3 -88 12 -105 18 -163 66 -205 281 -80 406 116 117 308 91 392
-53 21 -35 27 -62 31 -123 5 -84 15 -103 54 -97 36 5 50 43 44 121 -13 177
-147 311 -322 322 -38 2 -86 0 -107 -5z m229 -53 c104 -53 178 -176 172 -286
-2 -42 -7 -56 -18 -56 -11 0 -17 17 -22 67 -19 195 -180 306 -365 253 -108
-31 -193 -148 -193 -265 0 -99 64 -204 152 -247 25 -13 76 -26 114 -30 51 -6
69 -12 69 -23 0 -12 -15 -15 -81 -14 -74 1 -84 4 -135 36 -61 39 -99 80 -132
142 -17 33 -21 58 -22 136 0 87 2 99 30 149 36 66 108 130 172 154 71 26 192
19 259 -16z"/>
<path d="M977 622 c-30 -32 -35 -63 -11 -86 21 -22 38 -20 72 9 36 30 44 57
25 84 -20 29 -54 26 -86 -7z m63 -25 c0 -17 -20 -37 -37 -37 -16 0 -17 22 -1
38 16 16 38 15 38 -1z"/>
<path d="M2773 2324 c-12 -3 -27 -11 -33 -19 -8 -9 -12 -286 -16 -960 -4 -807
-6 -952 -19 -982 -27 -63 -17 -84 13 -28 l27 50 3 958 2 957 75 0 75 0 0 -941
c0 -847 -2 -944 -16 -975 -23 -47 -67 -76 -125 -82 -27 -2 -49 -8 -49 -13 0
-5 5 -10 10 -10 6 -1 16 -2 23 -3 25 -4 100 24 124 46 55 50 53 19 54 961 0
1052 1 1009 -10 1025 -8 14 -100 24 -138 16z"/>
<path d="M1696 1841 c-41 -9 -56 -24 -56 -56 0 -39 18 -45 114 -38 55 3 113 1
145 -6 226 -48 400 -258 401 -482 0 -148 -48 -259 -162 -372 -43 -43 -78 -81
-78 -85 0 -4 7 -18 16 -30 28 -40 59 -29 143 56 189 189 232 447 115 690 -66
137 -214 262 -364 306 -64 19 -218 29 -274 17z m256 -39 c192 -54 344 -205
402 -401 20 -68 21 -217 2 -289 -25 -93 -71 -176 -136 -246 -70 -74 -97 -93
-112 -78 -6 6 14 33 55 75 80 81 121 152 147 253 25 98 25 170 0 268 -25 98
-62 166 -125 231 -60 62 -116 98 -204 133 -56 21 -84 26 -181 27 -95 1 -116 4
-118 17 -7 37 150 43 270 10z"/>
<path d="M1563 1760 c-49 -22 -56 -32 -14 -20 32 9 71 28 71 35 0 9 -14 5 -57
-15z"/>
<path d="M1591 1606 c-8 -10 -12 -205 -14 -707 -2 -637 -3 -697 -19 -733 -10
-21 -18 -44 -18 -50 1 -21 39 35 50 72 6 24 10 288 10 725 l0 687 50 0 50 0 0
-693 c0 -655 -1 -694 -19 -727 -22 -42 -74 -80 -109 -80 -19 0 -23 -3 -15 -11
16 -16 68 -2 104 28 65 55 62 17 61 781 0 522 -3 697 -12 708 -16 18 -103 19
-119 0z"/>
<path d="M1918 764 c-58 -18 -74 -52 -40 -86 19 -19 24 -20 69 -9 78 20 104
58 65 94 -22 20 -32 20 -94 1z m72 -37 c0 -16 -41 -37 -70 -37 -24 0 -26 13
-4 34 19 20 74 21 74 3z"/>
<path d="M2956 375 c-34 -65 -94 -118 -150 -134 -26 -7 -208 -11 -518 -11
-327 0 -485 -3 -499 -11 -12 -6 -27 -27 -36 -47 -20 -50 -68 -99 -128 -130
-43 -22 -47 -27 -27 -30 58 -9 175 90 189 159 l6 29 496 1 c273 0 503 2 511 4
33 6 87 33 116 58 37 32 76 109 72 143 -3 21 -7 16 -32 -31z"/>
<path d="M13 192 c10 -86 93 -169 179 -178 l43 -5 -50 27 c-47 25 -125 90
-125 105 0 4 -12 27 -26 50 l-26 44 5 -43z"/>
</g>
</svg>
